HIERARCHY
ROOT hip
{
	OFFSET 0.000000 0.000000 0.000000 
	CHANNELS 6 Xposition Yposition Zposition Xrotation Zrotation Yrotation
	JOINT abdomen
	{
		OFFSET 0.000000 3.402643 0.000000 
		CHANNELS 3 Xrotation Zrotation Yrotation
		JOINT chest
		{
			OFFSET 0.000000 8.438565 -0.680529 
			CHANNELS 3 Xrotation Zrotation Yrotation
			JOINT neck
			{
				OFFSET 0.000000 10.207942 -0.272212 
				CHANNELS 3 Xrotation Zrotation Yrotation
				JOINT head
				{
					OFFSET 0.000000 3.130431 0.000000 
					CHANNELS 3 Xrotation Zrotation Yrotation
					End Site
					{
						OFFSET 0.000000 3.130435 0.000000 
					}
				}
			}
			JOINT lCollar
			{
				OFFSET 3.470700 6.669187 -0.816635 
				CHANNELS 3 Yrotation Zrotation Xrotation
				JOINT lShldr
				{
					OFFSET 3.198488 0.000000 0.000000 
					CHANNELS 3 Zrotation Yrotation Xrotation
					JOINT lForeArm
					{
						OFFSET 10.139888 0.000000 0.000000 
						CHANNELS 3 Yrotation Zrotation Xrotation
						JOINT lHand
						{
							OFFSET 8.370511 0.000000 0.000000 
							CHANNELS 3 Zrotation Yrotation Xrotation
							End Site
							{
								OFFSET 4.083176 0.000000 0.000000 
							}
						}
					}
				}
			}
			JOINT rCollar
			{
				OFFSET -3.470700 6.669187 -0.816635 
				CHANNELS 3 Yrotation Zrotation Xrotation
				JOINT rShldr
				{
					OFFSET -3.198488 0.000000 0.000000 
					CHANNELS 3 Zrotation Yrotation Xrotation
					JOINT rForeArm
					{
						OFFSET -10.139888 0.000000 0.000000 
						CHANNELS 3 Yrotation Zrotation Xrotation
						JOINT rHand
						{
							OFFSET -8.370511 0.000000 0.000000 
							CHANNELS 3 Zrotation Yrotation Xrotation
							End Site
							{
								OFFSET -4.083176 0.000000 0.000000 
							}
						}
					}
				}
			}
		}
	}
	JOINT lThigh
	{
		OFFSET 5.308129 -1.633274 1.361059 
		CHANNELS 3 Xrotation Zrotation Yrotation
		JOINT lShin
		{
			OFFSET -2.041588 -20.007561 0.000000 
			CHANNELS 3 Xrotation Zrotation Yrotation
			JOINT lFoot
			{
				OFFSET 0.000000 -19.190928 -1.224953 
				CHANNELS 3 Xrotation Yrotation Zrotation
				End Site
				{
					OFFSET 0.000000 -2.449906 4.627600 
				}
			}
		}
	}
	JOINT rThigh
	{
		OFFSET -5.308129 -1.633274 1.361059 
		CHANNELS 3 Xrotation Zrotation Yrotation
		JOINT rShin
		{
			OFFSET 2.041588 -20.007561 0.000000 
			CHANNELS 3 Xrotation Zrotation Yrotation
			JOINT rFoot
			{
				OFFSET 0.000000 -19.190928 -1.224953 
				CHANNELS 3 Xrotation Yrotation Zrotation
				End Site
				{
					OFFSET 0.000000 -2.449906 4.627600 
				}
			}
		}
	}
}
MOTION
Frames: 6
Frame Time: 0.016667
0.319400 52.568981 0.155720 -5.402710 -2.988611 -6.483586 29.387466 1.006534 -3.299032 0.038673 4.151581 -8.139144 -1.318590 5.722858 -0.034952 7.525753 7.953439 -64.624054 -7.142140 -8.476260 -0.448176 -64.131508 8.760207 -15.091146 -22.061054 -5.000000 33.740498 -24.050989 1.398684 17.394018 -3.994162 10.476687 -0.545079 32.189339 5.190374 -0.537806 105.372475 -5.000000 8.520870 -23.272999 -8.394933 45.000000 18.861963 15.633636 21.698887 3.176917 -6.286401 -0.581593 -7.075559 10.726508 -8.002409 10.394135 -10.424732 -5.513453 3.289997 2.625458 0.153047 -1.962665 -3.334347 10.408254 
0.321845 52.570206 0.144459 -5.405339 -2.979080 -6.454329 29.378201 1.016909 -3.294186 0.041922 4.132269 -8.128726 -1.357659 5.732514 -0.036413 7.551207 7.989781 -64.654800 -7.093389 -8.486021 -0.448680 -64.112579 8.756511 -15.092442 -22.015850 -5.000000 33.683994 -24.068974 1.416471 17.420282 -4.013788 10.466934 -0.544575 31.889648 5.392904 -0.469746 104.965347 -5.000000 8.281706 -22.957806 -9.080251 45.000000 18.831150 15.622743 21.693890 3.185152 -6.271221 -0.611624 -7.072679 10.753551 -7.978961 10.396196 -10.436029 -5.554685 3.289949 2.624940 0.172562 -1.978794 -3.314492 10.405475 
0.324290 52.571419 0.133198 -5.406864 -2.979252 -6.425072 29.388767 1.023824 -3.280369 0.053307 4.122611 -8.118988 -1.397690 5.731059 -0.046022 7.586386 8.026044 -64.686958 -7.033350 -8.487226 -0.439095 -64.084114 8.755361 -15.092256 -21.967676 -5.000000 33.636021 -24.084488 1.438836 17.433733 -4.033319 10.466933 -0.544575 31.598471 5.601459 -0.411060 104.545662 -5.000000 8.035743 -22.652004 -9.765586 45.000000 18.809431 15.631528 21.684687 3.177489 -6.275123 -0.610723 -7.041217 10.703558 -8.003362 10.396149 -10.435944 -5.574541 3.289669 2.624716 0.192077 -1.994925 -3.317563 10.435719 
0.321904 52.572632 0.122459 -5.417645 -2.979367 -6.405568 29.389446 1.010499 -3.274983 0.084220 4.112953 -8.109246 -1.407462 5.740715 -0.047482 7.587141 8.037202 -64.710968 -7.004053 -8.487227 -0.439095 -64.059517 8.721563 -15.052810 -22.007572 -5.000000 33.555744 -24.067568 1.453587 17.404741 -4.043179 10.457183 -0.544071 31.416985 5.739907 -0.375603 104.106575 -5.000000 7.783988 -22.367315 -11.083873 45.000000 18.788223 15.654297 21.646984 3.208717 -6.281168 -0.584215 -7.019524 10.708507 -7.993265 10.393992 -10.424484 -5.573019 3.276015 2.611359 0.161999 -1.975529 -3.319637 10.434778 
0.319519 52.573837 0.111721 -5.438702 -2.979537 -6.376311 29.399368 1.006302 -3.266167 0.114429 4.103230 -8.099483 -1.426995 5.740715 -0.047482 7.587884 8.048333 -64.734978 -6.964914 -8.477474 -0.438592 -64.035080 8.678966 -15.019162 -22.036058 -5.000000 33.486778 -24.050438 1.472335 17.384665 -4.043273 10.447429 -0.543567 31.235411 5.886930 -0.336851 103.666229 -5.000000 7.530797 -22.095716 -12.412169 45.000000 18.785191 15.673118 21.621994 3.194339 -6.299487 -0.583565 -6.993810 10.690180 -7.991606 10.384930 -10.405990 -5.569737 3.284425 2.601045 0.152702 -1.958053 -3.328704 10.431208 
0.317211 52.575062 0.101709 -5.440735 -2.979764 -6.336794 29.400381 1.002573 -3.256259 0.134174 4.093442 -8.089691 -1.446535 5.750371 -0.048943 7.598744 8.064978 -64.769623 -6.925852 -8.477476 -0.438592 -64.020180 8.633818 -14.985542 -22.132904 -5.000000 33.373390 -24.055559 1.472449 17.332067 -4.060912 10.457874 -0.555423 31.122868 5.976347 -0.327613 103.317833 -5.000000 7.327684 -21.884649 -13.852372 45.000000 18.748680 15.683130 21.590889 3.225911 -6.294324 -0.586198 -6.978476 10.732002 -7.974561 10.395497 -10.395810 -5.607932 3.286755 2.581995 0.162297 -1.951398 -3.346984 10.434669 
